<svg xmlns="http://www.w3.org/2000/svg" width="102" height="102" viewBox="0 0 102 102">
    <defs>
        <linearGradient id="a" x1="82.621%" x2="18.189%" y1="13.344%" y2="86.902%">
            <stop offset="0%" stop-color="#DFDFDF"/>
            <stop offset="100%" stop-color="#A6A6A6"/>
        </linearGradient>
    </defs>
    <g fill="none" fill-rule="evenodd" transform="translate(3 3)">
        <circle cx="48" cy="48" r="48" fill="url(#a)" stroke="#FAFAFA" stroke-width="5"/>
        <path fill="#FFF" fill-rule="nonzero" d="M47.49 50.57c-5.49 0-16.105 3.295-16.105 10.799v6.955c0 1.098.915 1.83 1.83 1.83s1.83-.915 1.83-1.83v-7.138c0-4.21 7.87-6.955 12.263-6.955 4.392 0 12.262 2.562 12.262 6.955v7.138c0 1.098.915 1.83 1.83 1.83 1.099 0 1.83-.915 1.83-1.83v-7.138c.184-7.321-10.432-10.616-15.74-10.616zm0-1.464c5.125 0 8.969-3.843 8.969-8.968V36.66c0-5.124-3.844-8.968-8.968-8.968-5.125 0-8.968 3.844-8.968 8.968v3.478c0 5.125 3.843 8.968 8.968 8.968zM42.367 36.66c0-3.11 2.013-5.124 5.125-5.124 3.111 0 5.124 2.013 5.124 5.124v3.478c0 3.111-2.013 5.125-5.124 5.125-3.112 0-5.125-2.014-5.125-5.125V36.66z"/>
    </g>
</svg>
