<svg width="249" height="114" viewBox="0 0 249 114" fill="none" xmlns="http://www.w3.org/2000/svg">
<path d="M215.431 42.634H210.743V51.2791C210.743 52.6485 209.981 53.4199 208.655 53.4199H170.63V43.0927C170.302 42.9992 169.984 42.9102 169.669 42.828C166.315 41.963 164.555 41.9288 163.964 41.9288C162.401 41.9288 160.28 42.2095 158.845 43.0699C157.606 43.7749 156.565 44.7813 155.819 45.9957C155.097 47.2141 154.731 48.6103 154.762 50.0262C154.751 51.156 154.987 52.2747 155.453 53.3037C155.92 54.3327 156.606 55.2471 157.464 55.9828C157.544 56.0513 159.34 57.8246 162.576 57.9729H166.141C165.685 59.9083 164.117 61.0471 162.049 61.0471H159.005L160.944 65.3537H162.047C164.114 65.3523 166.111 64.6046 167.67 63.2481C169.23 61.8915 170.247 60.0175 170.534 57.9706L171.936 57.9889H209.107C209.727 57.9923 210.347 57.9257 210.953 57.7903L211.126 57.7493C214.744 56.8204 215.376 53.2943 215.431 51.2768C215.431 51.1559 215.431 51.0486 215.431 50.9368V42.634ZM166.018 53.3811L165.883 53.4609C165.242 53.8375 164.4 54.0269 163.373 54.0269C162.04 54.0269 161.027 53.6207 160.267 52.7854C159.627 51.9816 159.297 50.9749 159.338 49.9486C159.292 48.7618 159.648 47.7759 160.392 47.0273C161.207 46.1874 162.296 45.7766 163.722 45.7766C164.413 45.7741 165.102 45.8507 165.776 46.0049L166.02 46.0619L166.018 53.3811Z" fill="#323232"/>
<path d="M42.3571 42.5815C43.16 42.5449 43.9519 42.3808 44.7032 42.0954V38.4438H40.0247V40.7009C40.0247 41.9699 40.7869 42.5815 42.3571 42.5815Z" fill="#323232"/>
<path d="M145.825 51.3065C145.825 52.6234 145.058 53.4107 143.771 53.4107H108.314C106.246 53.4107 105.651 52.2536 105.669 50.0148V42.634H101.047V50.6903C101.047 52.5846 100.162 53.4678 98.263 53.4678H62.2698C60.9986 53.4678 60.2705 52.6987 60.2705 51.3636V35.6755H55.7061V51.0258C55.7061 55.4967 57.9175 57.957 61.9297 57.957H98.5323C100.447 57.957 102.147 57.1833 103.081 55.8892L103.323 55.5537L103.587 55.871C104.729 57.2403 106.344 57.957 108.275 57.957H144.223C149.839 57.957 150.446 53.1095 150.446 51.0258V42.634H145.825V51.3065Z" fill="#323232"/>
<path d="M46.787 57.5233C46.79 57.5739 46.7961 57.6242 46.8053 57.674C46.8293 57.8181 46.843 57.9638 46.8463 58.1099V58.3381L46.6409 58.418C45.0114 59.057 43.5051 59.3811 42.1655 59.3811C39.1392 59.3811 37.5417 57.8885 37.5417 55.0654V47.0524H33V55.8778C33 60.7984 35.9783 63.181 42.1061 63.181C44.5162 63.181 47.515 62.558 51.2693 61.2799V47.0524H46.787V57.5233Z" fill="#323232"/>
<path d="M90.4325 63.4822C90.4325 64.742 91.1948 65.3537 92.7627 65.3537C93.5655 65.317 94.3575 65.153 95.1088 64.8676V61.216H90.4325V63.4822Z" fill="#323232"/>
<path d="M98.3975 63.4822C98.3975 64.742 99.1597 65.3537 100.728 65.3537C101.527 65.3161 102.316 65.152 103.065 64.8676V61.216H98.3975V63.4822Z" fill="#323232"/>
<path d="M141.16 63.4822C141.16 64.742 141.922 65.3537 143.49 65.3537C144.293 65.317 145.085 65.153 145.836 64.8676V61.216H141.16V63.4822Z" fill="#323232"/>
<path d="M202.691 63.4822C202.691 64.742 203.454 65.3537 205.021 65.3537C205.823 65.3166 206.613 65.1525 207.363 64.8676V61.216H202.691V63.4822Z" fill="#323232"/>
<path d="M116.409 1.09727C112.856 1.29947 109.315 1.68953 105.803 2.26578C105.777 2.26851 105.752 2.28169 105.735 2.30245C105.718 2.32321 105.71 2.34983 105.713 2.37647C105.716 2.4031 105.729 2.42756 105.75 2.44446C105.771 2.46137 105.797 2.46934 105.824 2.46661C120.022 2.87513 132.439 10.5959 139.704 22.1121C141.308 24.6514 143.53 26.7434 146.161 28.1931C148.792 29.6428 151.747 30.4032 154.75 30.4035L159.94 30.4697H177.89C167.837 12.9307 144.081 -0.26979 116.409 1.09727Z" fill="#C8102E"/>
<path d="M70.552 30.3556H82.0043C84.2113 30.3511 86.3714 29.7173 88.2309 28.5284C90.0904 27.3395 91.5722 25.6449 92.5026 23.6435C93.1822 22.1721 94.0072 20.7722 94.9651 19.4647C97.8213 15.7946 101.749 13.1042 106.203 11.7667C108.322 11.1823 110.52 10.9298 112.716 11.0182L112.732 10.9155C109.293 9.72951 105.682 9.11956 102.045 9.11022C88.0134 9.08512 75.9061 17.8352 70.552 30.3556Z" fill="#C8102E"/>
<path d="M49.1514 85.3324V85.2343C50.5762 84.6453 51.8045 83.6639 52.6934 82.4043C53.5928 81.177 54.0766 79.6945 54.0742 78.173C54.0848 71.9866 49.8749 68.8851 41.4443 68.8683C39.2625 68.8683 36.4964 68.8295 33.073 69.2837L33 102.23C34.5063 102.49 39.9882 102.773 41.2708 102.776C50.5717 102.794 55.2282 99.6124 55.2404 93.2312C55.2881 91.4086 54.7259 89.6222 53.6428 88.1555C52.5732 86.7253 51.0761 85.7843 49.1514 85.3324ZM39.073 74.2955C39.5538 74.2316 40.0103 74.1761 40.4424 74.1289C40.866 74.0815 41.2919 74.0586 41.7181 74.0604C43.6094 74.0604 45.0358 74.2886 45.9973 74.7451C47.2769 75.4206 47.9159 76.6241 47.9144 78.3556C47.9144 81.3073 45.9365 82.7786 41.9806 82.7694H39.0479L39.073 74.2955ZM41.7204 97.4853C41.2857 97.4843 40.8514 97.4592 40.4196 97.41C39.9722 97.3628 39.5074 97.3058 39.0251 97.2388L39.0456 87.957H42.1244C46.7421 87.9661 49.0479 89.5743 49.0418 92.7816C49.0358 95.9296 46.5953 97.4975 41.7204 97.4853Z" fill="#323232"/>
<path d="M71.15 77.7691C67.5258 77.7691 64.6053 78.9497 62.3884 81.3111C60.1716 83.6725 59.0594 86.669 59.0518 90.3008C59.0427 93.922 60.1267 96.9064 62.304 99.254C64.5756 101.632 67.5067 102.824 71.0975 102.83C74.7217 102.83 77.6422 101.666 79.859 99.3385C82.0758 97.0106 83.1926 94.0171 83.2093 90.3579C83.2093 86.7337 82.1093 83.7326 79.9092 81.3545C77.7091 78.9764 74.7894 77.7812 71.15 77.7691ZM75.5387 95.5294C74.5102 97.1316 73.0336 97.9296 71.1089 97.9235C69.1842 97.9174 67.7106 97.1133 66.6882 95.5112C65.8574 94.1951 65.4444 92.4781 65.4489 90.3602C65.4489 88.2772 65.8689 86.5465 66.7087 85.1681C67.7373 83.5659 69.2146 82.7672 71.1408 82.7717C73.067 82.7763 74.5398 83.5971 75.5592 85.2343C76.39 86.6143 76.8038 88.3313 76.8008 90.3853C76.7962 92.5062 76.3755 94.2232 75.5387 95.5363V95.5294Z" fill="#323232"/>
<path d="M109.11 97.1932L109.149 78.3853L103.377 78.3738L103.341 95.833C103.341 95.9311 103.341 96.0612 103.364 96.2187C103.386 96.3761 103.402 96.5861 103.434 96.844C101.609 97.5439 99.9882 97.8931 98.5732 97.8915C95.3994 97.8915 93.8155 96.4134 93.8216 93.4572L93.8535 78.3533H88.0817L88.0475 94.37C88.0369 100.045 91.5264 102.89 98.5161 102.906C101.369 102.906 105.01 102.127 109.439 100.571C109.311 99.8018 109.227 99.1376 109.179 98.5739C109.131 98.0102 109.108 97.5446 109.11 97.1932Z" fill="#323232"/>
<path d="M126.8 77.8923C124.924 77.8686 123.072 78.3109 121.409 79.1795L121.434 68.7816H115.663L115.599 98.5169C115.599 98.8387 115.571 99.2381 115.523 99.7196C115.476 100.201 115.416 100.76 115.352 101.402C118.298 102.457 121.407 102.984 124.536 102.96C128.253 102.96 131.382 101.796 133.923 99.4686C136.493 97.1012 137.781 94.1053 137.789 90.4811C137.797 86.8569 136.889 83.9053 135.066 81.6261C133.084 79.1445 130.328 77.8999 126.8 77.8923ZM129.744 95.6938C128.527 97.232 126.875 97.9981 124.787 97.992C123.61 98.0185 122.437 97.8377 121.323 97.4579C121.353 97.3161 121.369 97.1716 121.371 97.0266V96.7367L121.398 84.0384C122.393 83.2776 123.708 82.8973 125.344 82.8973C127.363 82.8973 128.9 83.6542 129.956 85.1681C130.884 86.5496 131.346 88.2658 131.342 90.3168C131.34 92.5245 130.808 94.3176 129.746 95.696L129.744 95.6938Z" fill="#323232"/>
<path d="M187.923 85.8596C187.923 83.1985 187.077 81.1932 185.385 79.8436C183.786 78.6264 181.639 78.0125 178.945 78.0019C175.672 77.9822 172.435 78.6835 169.464 80.0559L171.427 84.4378C173.536 83.5102 175.812 83.0241 178.116 83.0091C180.809 83.0091 182.154 83.7493 182.151 85.2297C182.151 86.2871 180.868 87.1026 178.301 87.6762C174.481 88.5009 172.074 89.1688 171.08 89.6801C168.513 90.9901 167.226 93.0235 167.219 95.7805C167.219 98.3488 168.436 100.276 170.87 101.561C172.76 102.559 175.132 103.062 177.986 103.068C180.679 103.068 184.096 102.465 188.236 101.26C188.045 100.26 187.934 99.2468 187.905 98.2293L187.923 85.8596ZM178.036 98.3092C175.053 98.3092 173.564 97.3278 173.57 95.3651C173.57 94.3396 174.164 93.5713 175.352 93.0601C175.899 92.8075 177.134 92.4735 179.059 92.0581C180.6 91.7402 181.627 91.3255 182.14 90.8143L182.128 96.7116C182.129 96.8322 182.137 96.9525 182.151 97.0722C182.167 97.2183 182.19 97.4032 182.222 97.6268C180.869 98.064 179.458 98.2941 178.036 98.3092Z" fill="#323232"/>
<path d="M205.11 78.0566C202.35 78.0566 198.709 78.8501 194.188 80.437C194.314 81.2084 194.401 81.874 194.448 82.434C194.495 82.9939 194.518 83.4503 194.516 83.8033L194.477 102.611H200.249L200.286 85.1521C200.286 85.022 200.286 84.8782 200.263 84.7185C200.24 84.5587 200.222 84.3647 200.192 84.1411C202.018 83.4381 203.638 83.0882 205.051 83.0912C208.225 83.0912 209.81 84.5701 209.805 87.5279L209.773 102.645H215.547L215.579 86.6287C215.591 80.9292 212.102 78.0718 205.11 78.0566Z" fill="#323232"/>
<path d="M153.315 96.755L146.468 78.4629L139.98 78.4537L148.938 99.9205C149.641 101.594 150.537 102.542 151.626 102.764C150.538 105.517 148.879 107.513 146.649 108.755L149.707 113C152.561 111.433 154.787 108.409 156.385 103.928L165.577 78.5017L159.47 78.4902L153.315 96.755Z" fill="#323232"/>
</svg>
